<svg xmlns="http://www.w3.org/2000/svg" width="663" height="167" viewBox="0 0 663 167">
  <defs>
    <style>
      .cls-1 {
        fill: #06f;
      }

      .cls-1, .cls-2 {
        fill-rule: evenodd;
      }

      .cls-2 {
        fill: orange;
      }
    </style>
  </defs>
  <path id="Color_Fill_1" data-name="Color Fill 1" class="cls-1" d="M386.1,0.987c0.41,0.043.322,0.065,0.434,0.381q-0.407,36.909-.814,73.826v4.57q-0.054,3.617-.109,7.236-0.081,3.536-.163,7.073c-0.453,3.621-.672,6.551-1.845,9.3-2.853,6.7-8.766,10.742-16.713,12.35-4.111.832-13.389-.328-14.652-2.883-0.569-1.152.282-8.993,0.651-9.9l0.055-.054c1.228,0.079,2.152,1.014,3.31,1.36a9.871,9.871,0,0,0,10.039-2.775c3.176-3.918,2.008-15.2,2.008-22.251q-0.056-18.795-.109-37.593,0.054-7.126.109-14.254,0.135-2.53.271-5.06c0.545-2.785,3.413-4.907,4.992-6.855Zm51.226,27.637c20.762-.3,34.5,10.214,40.645,24.482,3.881,9.006,4.049,22.405.054,31.554-6.151,14.089-17.685,21.579-35.544,24.047-6.274.867-12.776-.594-17.2-2.122-13.381-4.62-23.021-14.187-26.047-29.16a29.3,29.3,0,0,1-.651-9.3c0.678-4.976.9-8.973,2.387-12.894a41.318,41.318,0,0,1,24.42-24.264,35.041,35.041,0,0,1,7.217-1.9Zm84.654,76.982h-15.3q-0.108-10.445-.217-20.891-0.135-3.944-.271-7.889l-7.272-11.262-14.6-24.156-5.806-9.575,0.108-.109c4.593-.222,10.2-0.678,14.923-0.109,1.6,0.193,3.328-.175,4.45.435,0.339,2.014,2.82,5.307,3.853,7.073l8.628,14.961c0.761,1.257,3.2,6.134,4.395,6.474,1.6-1.708,2.651-4.119,3.908-6.148q4.313-7.208,8.628-14.417c0.736-1.285,4.089-8.011,4.884-8.433,1.867-.99,9.628.264,12.589-0.109l4.016-.272L549,31.29c0.165,1.405-2.73,5.241-3.473,6.474q-4.963,8.35-9.93,16.7l-8.14,13.547c-1.558,2.523-3.665,5.122-4.613,8.106-1.064,3.353-.279,7.637-0.759,11.806Q522.034,96.764,521.979,105.606ZM297.321,31.834l13.729-.054q0.108,27.934.217,55.873c0,4.712.5,16.96-2.659,17.9a10.941,10.941,0,0,1-6.187-.38c-2.822-1.594-6.528-7.257-8.628-9.956L263.513,57.73l-0.054.054c-0.908,1.988-.326,7.651-0.326,10.391q0.027,13.11.055,26.223c0,3.3.572,8.345-1.031,10.173-0.884,1.007-11.246,1.663-13.187.707q-0.081-36.773-.163-73.554l0.055-.054c2.689-.022,10.239-0.75,12.318.109l2.062,2.339,6.62,8.161,18.885,23.176,5.7,7.072c0.764,1,1.447,2.293,2.551,2.938l0.054-.218c1-3.141-.222-8.92.217-12.622Q297.293,47.232,297.321,31.834Zm-185.263-.218c2.821,0.124,15-.317,16.389.653,0.879,0.617,4.279,11.462,4.938,13.383l8.791,24.971,2.767,8.215c0.483,1.385.8,3.068,1.628,4.135h0.163c2.1-3.481,2.852-8.282,4.341-12.241q4.451-12.947,8.9-25.9l4.558-13,3.961-.163c3.674,0,8.155-.489,11.45.218v0.054Q167.764,63,155.579,94.072c-0.919,2.263-3.389,10.5-5.1,11.371-1.368.7-3.978,0.272-5.806,0.272-1.436,0-3.43.212-4.4-.327q-3.906-9.873-7.814-19.749l-13.729-35.8Q116.1,43.069,113.469,36.3C113.144,35.523,111.728,32.106,112.058,31.616Zm91.112,0.163c2.625-.016,5.931-0.346,8.194.218q10.771,26.356,21.543,52.718l6.241,14.526c0.613,1.414,2.675,4.741,2.55,6.256-3.36.014-15.236,1.213-17.11,0.028-0.466-.3-2.592-6.117-7.255-17.22-3.4-.509-7.556-0.218-11.287-0.218l-9.5.109c-1.855.25-4.627-.363-5.535,0.816-4.711,11.831-6.793,17.036-6.733,16.982a61.317,61.317,0,0,1-14.105-.661c0.023,0.417,2.672-6.148,6.674-15.886,5.742-13.654,11.425-27.4,16.931-40.966l4.884-11.642c0.553-1.292,1.119-3.925,2.225-4.679C201.459,31.773,202.4,32,203.17,31.779ZM343.5,31.888q0.109,36.828.217,73.663H328.252q-0.081-27.525-.163-55.057V36.676c0-.852-0.188-4.388.163-4.733Zm93.934,10.663c-2.184.654-4.18,0.815-6.078,1.632A25.525,25.525,0,0,0,417.79,59.471c-5.942,18.443,5.744,38.964,25.233,36.124,11.8-1.719,17.954-9.272,20.133-20.565q0.135-1.849.271-3.7a28.681,28.681,0,0,0-1.9-13.71C457.9,48.324,450.476,42.5,437.434,42.551ZM203.767,54.792l-3.256,8.324q-1.735,4.379-3.473,8.759a19.163,19.163,0,0,0-1.682,4.733l0.163,0.109c3.754,0.3,8.042.163,12.047,0.163,1.637,0,3.817.23,5.046-.272-0.022-1.869-1.153-3.575-1.736-5.06q-2.28-5.848-4.559-11.7C205.855,58.714,204.794,55.089,203.767,54.792Z"/>
  <path id="Color_Fill_1-2" data-name="Color Fill 1" class="cls-2" d="M495.516,105.375l0.335,0.075c0.509,0.642-.454,1.883-0.707,2.381l-3.5,6.473c-5.1,8.7-11.543,17.536-19.048,23.81-2.539,2.122-4.93,4.445-7.589,6.473A97.4,97.4,0,0,1,432.5,160.622a107.061,107.061,0,0,1-13.691,2.753,90.987,90.987,0,0,1-13.393.632c-26.154,0-44.913-9.307-59.785-20.685-9.31-7.122-16.816-16.03-23.14-26.153-1.45-2.322-2.719-4.752-4.13-7.181-0.285-.491-1.642-1.823-1.228-2.455h0.186l4.242,3.981,8.891,6.919a132.516,132.516,0,0,0,46.541,21.615,136.162,136.162,0,0,0,13.988,2.381,117.972,117.972,0,0,0,15.588.6c30.565,0,53.592-9.619,71.578-22.322C484.412,116.275,490.891,111.457,495.516,105.375Zm0,0,0.335,0.075c0.509,0.642-.454,1.883-0.707,2.381l-3.5,6.473c-5.1,8.7-11.543,17.536-19.048,23.81-2.539,2.122-4.93,4.445-7.589,6.473A97.4,97.4,0,0,1,432.5,160.622a107.061,107.061,0,0,1-13.691,2.753,90.987,90.987,0,0,1-13.393.632c-26.154,0-44.913-9.307-59.785-20.685-9.31-7.122-16.816-16.03-23.14-26.153-1.45-2.322-2.719-4.752-4.13-7.181-0.285-.491-1.642-1.823-1.228-2.455h0.186l4.242,3.981,8.891,6.919a132.516,132.516,0,0,0,46.541,21.615,136.162,136.162,0,0,0,13.988,2.381,117.972,117.972,0,0,0,15.588.6c30.565,0,53.592-9.619,71.578-22.322C484.412,116.275,490.891,111.457,495.516,105.375Zm0,0,0.335,0.075c0.509,0.642-.454,1.883-0.707,2.381l-3.5,6.473c-5.1,8.7-11.543,17.536-19.048,23.81-2.539,2.122-4.93,4.445-7.589,6.473A97.4,97.4,0,0,1,432.5,160.622a107.061,107.061,0,0,1-13.691,2.753,90.987,90.987,0,0,1-13.393.632c-26.154,0-44.913-9.307-59.785-20.685-9.31-7.122-16.816-16.03-23.14-26.153-1.45-2.322-2.719-4.752-4.13-7.181-0.285-.491-1.642-1.823-1.228-2.455h0.186l4.242,3.981,8.891,6.919a132.516,132.516,0,0,0,46.541,21.615,136.162,136.162,0,0,0,13.988,2.381,117.972,117.972,0,0,0,15.588.6c30.565,0,53.592-9.619,71.578-22.322C484.412,116.275,490.891,111.457,495.516,105.375Z"/>
</svg>
